<?xml version="1.0" encoding="UTF-8" standalone="no"?>
<svg
   xmlns:dc="http://purl.org/dc/elements/1.1/"
   xmlns:cc="http://creativecommons.org/ns#"
   xmlns:rdf="http://www.w3.org/1999/02/22-rdf-syntax-ns#"
   xmlns:svg="http://www.w3.org/2000/svg"
   xmlns="http://www.w3.org/2000/svg"
   xmlns:sodipodi="http://sodipodi.sourceforge.net/DTD/sodipodi-0.dtd"
   xmlns:inkscape="http://www.inkscape.org/namespaces/inkscape"
   width="210mm"
   height="297mm"
   viewBox="0 0 210 297"
   version="1.1"
   id="svg8"
   sodipodi:docname="Darri-Jólatré.svg"
   inkscape:version="1.0.1 (3bc2e813f5, 2020-09-07)">
  <defs
     id="defs2" />
  <sodipodi:namedview
     id="base"
     pagecolor="#ffffff"
     bordercolor="#666666"
     borderopacity="1.0"
     inkscape:pageopacity="0.0"
     inkscape:pageshadow="2"
     inkscape:zoom="0.7"
     inkscape:cx="781.94501"
     inkscape:cy="774.92923"
     inkscape:document-units="mm"
     inkscape:current-layer="layer1"
     inkscape:document-rotation="0"
     showgrid="false"
     inkscape:window-width="1624"
     inkscape:window-height="1020"
     inkscape:window-x="114"
     inkscape:window-y="0"
     inkscape:window-maximized="0">
    <sodipodi:guide
       position="0,297"
       orientation="0,1"
       id="guide11" />
    <sodipodi:guide
       position="0,282"
       orientation="0,1"
       id="guide13" />
    <sodipodi:guide
       position="0,257"
       orientation="0,1"
       id="guide15" />
  </sodipodi:namedview>
  <metadata
     id="metadata5">
    <rdf:RDF>
      <cc:Work
         rdf:about="">
        <dc:format>image/svg+xml</dc:format>
        <dc:type
           rdf:resource="http://purl.org/dc/dcmitype/StillImage" />
        <dc:title></dc:title>
      </cc:Work>
    </rdf:RDF>
  </metadata>
  <g
     inkscape:label="Layer 1"
     inkscape:groupmode="layer"
     id="layer1">
    <g
       id="box4146"
       transform="translate(122.43452,55.160715)">
      <path
         style="fill:none;stroke:#0000ff;stroke-width:0.1;stroke-linecap:butt;stroke-linejoin:miter"
         id="box4146-lid"
         d="m 0,0 h 1.34091 v -3 h 2.68182 v 3 h 1.34091 1.34091 v -3 h 2.68182 v 3 h 1.34091 1.34091 v -3 h 2.68182 v 3 h 1.34091 1.34091 v -3 h 2.68182 v 3 h 1.34091 1.34091 v -3 h 2.68182 v 3 h 1.34091 1.34091 v -3 h 2.68182 v 3 h 1.34091 1.34091 v -3 h 2.68182 v 3 h 1.34091 1.34091 v -3 h 2.68182 v 3 h 1.34091 1.34091 v -3 h 2.68182 v 3 h 1.34091 1.34091 v -3 h 2.68182 v 3 h 1.34091 1.34091 v -3 h 2.68182 v 3 h 1.34091 v 1.68182 h 3 v 3.36364 h -3 V 6.72728 8.4091 h 3 v 3.36364 h -3 v 1.68182 1.68182 h 3 v 3.36364 h -3 v 1.68182 1.68182 h 3 v 3.36364 h -3 v 1.68182 1.68182 h 3 v 3.36364 h -3 v 1.68182 1.68182 h 3 v 3.36364 h -3 v 1.68182 1.68182 h 3 v 3.36364 h -3 v 1.68182 1.68182 h 3 v 3.36364 h -3 v 1.68182 1.68182 h 3 v 3.36364 h -3 v 1.68182 1.68182 h 3 v 3.36364 h -3 v 1.68182 1.68182 h 3 v 3.36364 h -3 v 1.68182 h -1.34091 v 3 h -2.68182 v -3 H 53.6364 52.29549 v 3 h -2.68182 v -3 h -1.34091 -1.34091 v 3 h -2.68182 v -3 h -1.34091 -1.34091 v 3 h -2.68182 v -3 h -1.34091 -1.34091 v 3 h -2.68182 v -3 h -1.34091 -1.34091 v 3 h -2.68182 v -3 H 26.8182 25.47729 v 3 h -2.68182 v -3 h -1.34091 -1.34091 v 3 h -2.68182 v -3 h -1.34091 -1.34091 v 3 h -2.68182 v -3 H 10.72728 9.38637 v 3 H 6.70455 v -3 H 5.36364 4.02273 v 3 H 1.34091 v -3 H 0 V 72.31826 H -3 V 68.95462 H 0 V 67.2728 65.59098 H -3 V 62.22734 H 0 V 60.54552 58.8637 H -3 V 55.50006 H 0 V 53.81824 52.13642 H -3 V 48.77278 H 0 V 47.09096 45.40914 H -3 V 42.0455 H 0 V 40.36368 38.68186 H -3 V 35.31822 H 0 V 33.6364 31.95458 H -3 V 28.59094 H 0 V 26.90912 25.2273 H -3 V 21.86366 H 0 V 20.18184 18.50002 H -3 V 15.13638 H 0 V 13.45456 11.77274 H -3 V 8.4091 H 0 V 6.72728 5.04546 H -3 V 1.68182 H 0 V 0" />
      <path
         style="fill:none;stroke:#0000ff;stroke-width:0.1;stroke-linecap:butt;stroke-linejoin:miter"
         id="box4146-longside1"
         d="m -3,77 v -3 h 3 m 62,0 v 3 0.791667 h -3 v 1.58333 h 3 v 0.791667 0.791667 h -3 v 1.58333 h 3 v 0.791667 0.791667 h -3 v 1.58333 h 3 v 0.791667 0.791667 h -3 v 1.58333 h 3 v 0.791667 0.791667 h -3 v 1.58333 h 3 v 0.791667 0.791667 h -3 v 1.58333 h 3 v 0.791667 3 h -3 -1.34091 v -3 h -2.68182 v 3 h -1.34091 -1.34091 v -3 h -2.68182 v 3 h -1.34091 -1.34091 v -3 h -2.68182 v 3 h -1.34091 -1.34091 v -3 h -2.68182 v 3 h -1.34091 -1.34091 v -3 h -2.68182 v 3 H 32.1818 30.84089 v -3 h -2.68182 v 3 h -1.34091 -1.34091 v -3 h -2.68182 v 3 h -1.34091 -1.34091 v -3 h -2.68182 v 3 h -1.34091 -1.34091 v -3 h -2.68182 v 3 H 10.72724 9.38633 v -3 H 6.70451 v 3 H 5.3636 4.02269 v -3 H 1.34087 v 3 H -4e-5 h -3 v -3 -0.791667 h 3 v -1.58333 h -3 V 92.83332 92.041653 h 3 v -1.58333 h -3 v -0.791667 -0.791667 h 3 v -1.58333 h -3 v -0.791667 -0.791667 h 3 v -1.58333 h -3 v -0.791667 -0.791667 h 3 v -1.58333 h -3 v -0.791667 -0.791667 h 3 v -1.58333 h -3 V 77" />
      <path
         style="fill:none;stroke:#0000ff;stroke-width:0.1;stroke-linecap:butt;stroke-linejoin:miter"
         id="box4146-base"
         d="m 0,99 m 59,0 v 1.68182 h 3 v 3.36364 h -3 v 1.68182 1.68182 h 3 v 3.36364 h -3 v 1.68182 1.68182 h 3 v 3.36364 h -3 v 1.68182 1.68182 h 3 v 3.36364 h -3 v 1.68182 1.68182 h 3 v 3.36364 h -3 v 1.68182 1.68182 h 3 v 3.36364 h -3 v 1.68182 1.68182 h 3 v 3.36364 h -3 v 1.68182 1.68182 h 3 v 3.36364 h -3 v 1.68182 1.68182 h 3 v 3.36364 h -3 v 1.68182 1.68182 h 3 v 3.36364 h -3 v 1.68182 1.68182 h 3 v 3.36364 h -3 v 1.68182 h -1.34091 v 3 h -2.68182 v -3 h -1.34091 -1.34091 v 3 h -2.68182 v -3 h -1.34091 -1.34091 v 3 h -2.68182 v -3 h -1.34091 -1.34091 v 3 h -2.68182 v -3 h -1.34091 -1.34091 v 3 h -2.68182 v -3 H 32.1818 30.84089 v 3 h -2.68182 v -3 h -1.34091 -1.34091 v 3 h -2.68182 v -3 h -1.34091 -1.34091 v 3 h -2.68182 v -3 h -1.34091 -1.34091 v 3 h -2.68182 v -3 H 10.72724 9.38633 v 3 H 6.70451 v -3 H 5.3636 4.02269 v 3 H 1.34087 v -3 H -4e-5 v -1.68182 h -3 v -3.36364 h 3 v -1.68182 -1.68182 h -3 v -3.36364 h 3 v -1.68182 -1.68182 h -3 v -3.36364 h 3 v -1.68182 -1.68182 h -3 v -3.36364 h 3 v -1.68182 -1.68182 h -3 v -3.36364 h 3 v -1.68182 -1.68182 h -3 v -3.36364 h 3 v -1.68182 -1.68182 h -3 v -3.36364 h 3 v -1.68182 -1.68182 h -3 v -3.36364 h 3 v -1.68182 -1.68182 h -3 v -3.36364 h 3 v -1.68182 -1.68182 h -3 v -3.36364 h 3 v -1.68182 -1.68182 h -3 v -3.36364 h 3 V 99" />
      <path
         style="fill:none;stroke:#0000ff;stroke-width:0.1;stroke-linecap:butt;stroke-linejoin:miter"
         id="box4146-longside2"
         d="m -3,176 v -3 h 3 m 62,0 v 3 0.79167 h -3 v 1.58333 h 3 v 0.79166 0.79167 h -3 v 1.58333 h 3 v 0.79167 0.79166 h -3 v 1.58333 h 3 v 0.79167 0.79167 h -3 v 1.58333 h 3 v 0.79167 0.79166 h -3 v 1.58333 h 3 v 0.79167 0.79167 h -3 v 1.58333 h 3 v 0.79166 3 h -3 -1.34091 v -3 h -2.68182 v 3 h -1.34091 -1.34091 v -3 h -2.68182 v 3 h -1.34091 -1.34091 v -3 h -2.68182 v 3 h -1.34091 -1.34091 v -3 h -2.68182 v 3 h -1.34091 -1.34091 v -3 h -2.68182 v 3 H 32.1818 30.84089 v -3 h -2.68182 v 3 h -1.34091 -1.34091 v -3 h -2.68182 v 3 h -1.34091 -1.34091 v -3 h -2.68182 v 3 h -1.34091 -1.34091 v -3 h -2.68182 v 3 H 10.72724 9.38633 v -3 H 6.70451 v 3 H 5.3636 4.02269 v -3 H 1.34087 v 3 H -4e-5 h -3 v -3 -0.79166 h 3 v -1.58333 h -3 v -0.79167 -0.79167 h 3 v -1.58333 h -3 v -0.79166 -0.79167 h 3 v -1.58333 h -3 v -0.79167 -0.79167 h 3 v -1.58333 h -3 v -0.79166 -0.79167 h 3 v -1.58333 h -3 v -0.79167 -0.79166 h 3 v -1.58333 h -3 V 176" />
      <path
         style="fill:none;stroke:#0000ff;stroke-width:0.1;stroke-linecap:butt;stroke-linejoin:miter"
         id="box4146-endface2"
         d="m 59,0 h 3 0.791667 v -3 h 1.58333 v 3 h 0.791667 0.791667 v -3 h 1.58333 v 3 h 0.791667 0.791667 v -3 h 1.58333 v 3 h 0.791667 0.791667 v -3 h 1.58333 v 3 h 0.791667 0.791667 v -3 h 1.58333 v 3 h 0.791667 0.791667 v -3 h 1.58333 v 3 h 0.791667 3 v 1.68182 h -3 v 3.36364 h 3 V 6.72728 8.4091 h -3 v 3.36364 h 3 v 1.68182 1.68182 h -3 v 3.36364 h 3 v 1.68182 1.68182 h -3 v 3.36364 h 3 v 1.68182 1.68182 h -3 v 3.36364 h 3 v 1.68182 1.68182 h -3 v 3.36364 h 3 v 1.68182 1.68182 h -3 v 3.36364 h 3 v 1.68182 1.68182 h -3 v 3.36364 h 3 v 1.68182 1.68182 h -3 v 3.36364 h 3 v 1.68182 1.68182 h -3 v 3.36364 h 3 v 1.68182 1.68182 h -3 v 3.36364 h 3 v 1.68182 h -3 -0.791667 v 3 h -1.58333 v -3 H 77.83332 77.041653 v 3 h -1.58333 v -3 h -0.791667 -0.791667 v 3 h -1.58333 v -3 h -0.791667 -0.791667 v 3 h -1.58333 v -3 h -0.791667 -0.791667 v 3 h -1.58333 v -3 h -0.791667 -0.791667 v 3 h -1.58333 v -3 H 62 59" />
      <path
         style="fill:none;stroke:#0000ff;stroke-width:0.1;stroke-linecap:butt;stroke-linejoin:miter"
         id="box4146-endface1"
         d="m 59,99 m 3,0 h 0.791667 v -3 h 1.58333 v 3 h 0.791667 0.791667 v -3 h 1.58333 v 3 h 0.791667 0.791667 v -3 h 1.58333 v 3 h 0.791667 0.791667 v -3 h 1.58333 v 3 h 0.791667 0.791667 v -3 h 1.58333 v 3 h 0.791667 0.791667 v -3 h 1.58333 v 3 h 0.791667 3 v 1.68182 h -3 v 3.36364 h 3 v 1.68182 1.68182 h -3 v 3.36364 h 3 v 1.68182 1.68182 h -3 v 3.36364 h 3 v 1.68182 1.68182 h -3 v 3.36364 h 3 v 1.68182 1.68182 h -3 v 3.36364 h 3 v 1.68182 1.68182 h -3 v 3.36364 h 3 v 1.68182 1.68182 h -3 v 3.36364 h 3 v 1.68182 1.68182 h -3 v 3.36364 h 3 v 1.68182 1.68182 h -3 v 3.36364 h 3 v 1.68182 1.68182 h -3 v 3.36364 h 3 v 1.68182 1.68182 h -3 v 3.36364 h 3 v 1.68182 h -3 -0.791667 v 3 h -1.58333 v -3 H 77.83332 77.041653 v 3 h -1.58333 v -3 h -0.791667 -0.791667 v 3 h -1.58333 v -3 h -0.791667 -0.791667 v 3 h -1.58333 v -3 h -0.791667 -0.791667 v 3 h -1.58333 v -3 h -0.791667 -0.791667 v 3 h -1.58333 v -3 H 62 59" />
    </g>
    <g
       inkscape:label="Layer 1"
       id="layer1-9"
       transform="matrix(0.7069069,0,0,0.7069069,-13.178084,88.622517)">
      <g
         id="g59">
        <g
           id="g65"
           transform="translate(0.75595238,16.630952)">
          <path
             style="fill:none;stroke:#000000;stroke-width:0.264583px;stroke-linecap:butt;stroke-linejoin:miter;stroke-opacity:1"
             d="M 101.29762,30.238095 63.5,80.886903 88.446427,80.130951 46.113095,130.77976 l 30.238095,1e-5 -41.577382,60.47617 h 33.261906 l -43.845239,56.69644 64.255952,-1e-5 v 24.19047 h 19.654753"
             id="path16"
             sodipodi:nodetypes="ccccccccccc" />
          <path
             style="fill:none;stroke:#000000;stroke-width:0.264583px;stroke-linecap:butt;stroke-linejoin:miter;stroke-opacity:1"
             d="m 101.29761,30.238095 37.79762,50.64881 -24.94642,-0.75595 42.33333,50.648805 -30.2381,1e-5 41.57739,60.47617 h -33.26191 l 43.84524,56.69644 -64.25595,-1e-5 v 24.19047 H 94.494054"
             id="path16-9"
             sodipodi:nodetypes="ccccccccccc" />
        </g>
      </g>
      <path
         sodipodi:type="star"
         style="fill:#ffff00;fill-rule:evenodd;stroke-width:0.264583"
         id="path61"
         sodipodi:sides="5"
         sodipodi:cx="102.65533"
         sodipodi:cy="26.74926"
         sodipodi:r1="20.128784"
         sodipodi:r2="10.064392"
         sodipodi:arg1="-2.1692152"
         sodipodi:arg2="-1.5408967"
         inkscape:flatsided="false"
         inkscape:rounded="0"
         inkscape:randomized="0"
         d="m 91.316042,10.118308 11.640158,6.571058 12.01207,-5.863654 -2.65244,13.101021 9.2886,9.612185 -13.27946,1.525818 -6.2714,11.804311 -5.554715,-12.158013 -13.164535,-2.31672 9.846455,-9.039883 z"
         inkscape:transform-center-x="0.18594957"
         inkscape:transform-center-y="1.7444178" />
    </g>
    <ellipse
       style="fill:#ff0000;fill-rule:evenodd;stroke-width:0.19978"
       id="path111"
       cx="24.922619"
       cy="228.65198"
       rx="3"
       ry="3.0001891" />
    <ellipse
       style="fill:#ff0000;fill-rule:evenodd;stroke-width:0.19978"
       id="path111-3"
       cx="91.470238"
       cy="228.29762"
       rx="3"
       ry="3.0001891" />
    <ellipse
       style="fill:#ff0000;fill-rule:evenodd;stroke-width:0.19978"
       id="ellipse128"
       cx="22.678572"
       cy="267.60715"
       rx="3"
       ry="3.0001891" />
    <ellipse
       style="fill:#ff0000;fill-rule:evenodd;stroke-width:0.19978"
       id="ellipse130"
       cx="97.139885"
       cy="268.3631"
       rx="3"
       ry="3.0001891" />
    <ellipse
       style="fill:#ff0000;fill-rule:evenodd;stroke-width:0.19978"
       id="ellipse132"
       cx="33.639885"
       cy="187.4762"
       rx="3"
       ry="3.0001891" />
    <ellipse
       style="fill:#ff0000;fill-rule:evenodd;stroke-width:0.19978"
       id="ellipse134"
       cx="82.776787"
       cy="187.09822"
       rx="3"
       ry="3.0001891" />
    <ellipse
       style="fill:#ff0000;fill-rule:evenodd;stroke-width:0.19978"
       id="ellipse136"
       cx="43.845238"
       cy="151.94644"
       rx="3"
       ry="3.0001891" />
    <ellipse
       style="fill:#ff0000;fill-rule:evenodd;stroke-width:0.19978"
       id="ellipse138"
       cx="74.083336"
       cy="151.56847"
       rx="3"
       ry="3.0001891" />
    <ellipse
       style="fill:#ff0000;fill-rule:evenodd;stroke-width:0.19978"
       id="ellipse140"
       cx="59.342266"
       cy="108.47918"
       rx="3"
       ry="3.0001891" />
    <ellipse
       style="fill:#ff0000;fill-rule:evenodd;stroke-width:0.19978"
       id="ellipse142"
       cx="59.342266"
       cy="108.47918"
       rx="3"
       ry="3.0001891" />
    <ellipse
       style="fill:#ff0000;fill-rule:evenodd;stroke-width:0.39956"
       id="ellipse144"
       cx="194.25597"
       cy="191.9883"
       rx="6"
       ry="6.0003781" />
  </g>
</svg>
